<svg width="148" height="171" viewBox="0 0 148 171" fill="none" xmlns="http://www.w3.org/2000/svg">
<path fill-rule="evenodd" clip-rule="evenodd" d="M21.1523 0C17.557 0 14.022 0.921775 10.8806 2.67711C7.68191 4.31725 4.98196 6.79639 3.06716 9.8536C1.12476 12.9547 0.0645967 16.5322 0.00181137 20.1969L0.00089989 20.3022V150.644L0.00181137 150.749C0.0645967 154.414 1.12476 157.991 3.06716 161.092C4.98196 164.15 7.68191 166.628 10.8806 168.269C14.022 170.024 17.557 170.946 21.1523 170.946C24.7984 170.946 28.3827 169.998 31.5572 168.194C31.6271 168.154 31.6962 168.113 31.7644 168.07L136.667 102.808C139.848 101.196 142.534 98.7388 144.432 95.7006C146.391 92.5632 147.431 88.9334 147.431 85.2284C147.431 81.5234 146.391 77.8935 144.432 74.7563C142.532 71.7149 139.842 69.256 136.657 67.6435L31.7471 2.86482C31.6845 2.82619 31.6212 2.78868 31.5572 2.75235C28.3827 0.948121 24.7984 0 21.1523 0Z" fill="#48B1A3"/>
</svg>
