<svg width="81" height="80" viewBox="0 0 81 80" fill="none" xmlns="http://www.w3.org/2000/svg">
<g clip-path="url(#clip0_2703_1562)">
<path fill-rule="evenodd" clip-rule="evenodd" d="M66.1286 2.16425C65.8794 1.16563 65.1114 0.378506 64.1194 0.103739C63.1274 -0.171029 62.0646 0.109046 61.3366 0.836903L49.9081 12.2655C49.1984 12.9751 48.9131 14.0051 49.1566 14.9787L51.2183 23.2259C51.1907 23.2521 51.1634 23.2787 51.1364 23.3058L37.4669 36.9752C35.7932 38.6489 35.7932 41.3625 37.4669 43.0361C39.1406 44.7098 41.8542 44.7098 43.5278 43.0361L57.1973 29.3667C57.225 29.339 57.2522 29.311 57.279 29.2828L65.5211 31.3433C66.4949 31.5867 67.5246 31.3015 68.2343 30.5918L79.6628 19.1632C80.3908 18.4354 80.6708 17.3722 80.396 16.3802C80.1211 15.3883 79.3343 14.6207 78.3354 14.3711L68.5703 11.9297L66.1286 2.16425ZM42.3123 4.33195C42.4763 6.6932 40.6951 8.74034 38.3339 8.9044C32.3645 9.31909 26.6396 11.4386 21.8394 15.0112C17.0392 18.5838 13.3654 23.4593 11.2545 29.0583C9.14359 34.6574 8.68433 40.7447 9.93124 46.5971C11.1782 52.4495 14.0788 57.8211 18.2887 62.0731C22.4986 66.3257 27.8406 69.28 33.6802 70.5857C39.5198 71.8914 45.6114 71.4937 51.2314 69.4389C56.8514 67.3846 61.7634 63.76 65.384 58.996C69.0046 54.2317 71.1817 48.5284 71.6566 42.5635C71.844 40.2041 73.9091 38.4435 76.2686 38.6313C78.628 38.819 80.3886 40.884 80.2006 43.2435C79.596 50.8442 76.8223 58.1114 72.2086 64.1823C67.5948 70.2526 61.3354 74.8714 54.1744 77.4891C47.0131 80.1074 39.2509 80.6143 31.8099 78.9509C24.3688 77.2868 17.5618 73.5223 12.1974 68.104C6.83302 62.6851 3.13684 55.8406 1.54798 48.3833C-0.0408907 40.9259 0.544339 33.1691 3.23414 26.0346C5.92394 18.9 10.6052 12.6875 16.7219 8.13514C22.8386 3.58282 30.1334 0.882 37.7399 0.353564C40.1011 0.189523 42.1482 1.97071 42.3123 4.33195ZM38.4738 23.1883C39.3366 25.3924 38.2494 27.8786 36.0453 28.7415C34.1698 29.4757 32.5068 30.6659 31.2069 32.2043C29.907 33.7428 29.011 35.581 28.6 37.5528C28.1891 39.5245 28.276 41.5677 28.8532 43.4973C29.4303 45.427 30.4793 47.1824 31.9053 48.6047C33.3314 50.0271 35.0894 51.0716 37.0206 51.6437C38.9518 52.2159 40.9951 52.2976 42.9658 51.8816C44.9364 51.4655 46.7724 50.5649 48.3075 49.261C49.8426 47.957 51.0284 46.2911 51.7579 44.4137C52.615 42.2074 55.0984 41.1137 57.3047 41.9709C59.5108 42.8281 60.6046 45.3115 59.7474 47.5178C58.5023 50.7231 56.4774 53.5676 53.8564 55.7938C51.2355 58.02 48.1009 59.5577 44.7363 60.268C41.3716 60.9783 37.883 60.8389 34.5858 59.8623C31.2886 58.8851 28.287 57.1019 25.8522 54.6735C23.4175 52.245 21.6264 49.2479 20.6411 45.9533C19.6558 42.6586 19.5072 39.1703 20.2089 35.8039C20.9106 32.4374 22.4403 29.2989 24.6598 26.6722C26.8792 24.0455 29.7184 22.0135 32.9206 20.7599C35.1247 19.897 37.6109 20.9843 38.4738 23.1883Z" fill="#FB7869"/>
</g>
<defs>
<clipPath id="clip0_2703_1562">
<rect width="80" height="80" fill="white" transform="translate(0.5)"/>
</clipPath>
</defs>
</svg>
