<svg width="78" height="74" viewBox="0 0 78 74" fill="none" xmlns="http://www.w3.org/2000/svg">
<path d="M46.0114 1.23992C45.3857 1.98915 45.3857 3.20714 46.0114 3.95638L72.1497 35.259H2.23045C1.34495 35.259 0.626282 36.1197 0.626282 37.1802C0.626282 38.2406 1.34495 39.1013 2.23045 39.1013H72.1497L46.0146 70.4001C45.3889 71.1493 45.3889 72.3673 46.0146 73.1165C46.6402 73.8658 47.6572 73.8658 48.2829 73.1165L77.1547 38.5403C77.3022 38.3636 77.4209 38.1484 77.5044 37.914C77.5846 37.6796 77.6263 37.4299 77.6263 37.1802C77.6263 36.9304 77.5846 36.6807 77.5044 36.4463C77.4242 36.2081 77.3054 35.9967 77.1547 35.82L48.2829 1.24376C47.654 0.490681 46.6402 0.490683 46.0114 1.23992Z" fill="white"/>
</svg>
