<svg width="39" height="38" viewBox="0 0 39 38" fill="none" xmlns="http://www.w3.org/2000/svg">
<path d="M16.8199 11.4315C17.8365 8.89709 18.3448 7.62988 19.1706 7.45425C19.3878 7.40807 19.6122 7.40807 19.8294 7.45425C20.6552 7.62988 21.1635 8.89709 22.1801 11.4315C22.7583 12.8728 23.0473 13.5934 23.5882 14.0836C23.7399 14.2211 23.9046 14.3435 24.08 14.4492C24.7051 14.826 25.4855 14.8959 27.0464 15.0357C29.6886 15.2723 31.0097 15.3906 31.4131 16.1439C31.4967 16.2999 31.5535 16.4688 31.5812 16.6436C31.7149 17.4875 30.7437 18.3711 28.8013 20.1383L28.2619 20.6291C27.3538 21.4552 26.8997 21.8683 26.6371 22.3839C26.4795 22.6931 26.3739 23.0262 26.3244 23.3697C26.2419 23.9424 26.3749 24.5417 26.6408 25.7402L26.7358 26.1685C27.2127 28.3179 27.4511 29.3926 27.1535 29.9208C26.8861 30.3954 26.3936 30.6991 25.8496 30.7251C25.2439 30.754 24.3905 30.0587 22.6837 28.6679C21.5592 27.7516 20.997 27.2934 20.3728 27.1144C19.8024 26.9509 19.1976 26.9509 18.6272 27.1144C18.003 27.2934 17.4408 27.7516 16.3163 28.6679C14.6095 30.0587 13.7561 30.754 13.1504 30.7251C12.6064 30.6991 12.1139 30.3954 11.8465 29.9208C11.5489 29.3926 11.7873 28.3179 12.2642 26.1685L12.3592 25.7402C12.6251 24.5417 12.7581 23.9424 12.6756 23.3697C12.6261 23.0262 12.5205 22.6931 12.3629 22.3839C12.1003 21.8683 11.6462 21.4552 10.7381 20.6291L10.1987 20.1383C8.25631 18.3711 7.2851 17.4875 7.41885 16.6436C7.44655 16.4688 7.50336 16.2999 7.58691 16.1439C7.99035 15.3906 9.31145 15.2723 11.9537 15.0357C13.5145 14.8959 14.2949 14.826 14.9201 14.4492C15.0954 14.3435 15.2601 14.2211 15.4118 14.0836C15.9527 13.5934 16.2418 12.8728 16.8199 11.4315Z" fill="#FFAB00" stroke="#FFAB00" stroke-width="2"/>
</svg>
