<svg width="29" height="28" viewBox="0 0 29 28" fill="none" xmlns="http://www.w3.org/2000/svg">
<g clip-path="url(#clip0_2702_1087)">
<path d="M14.6224 27C21.8022 27 27.6224 21.1798 27.6224 14C27.6224 6.8203 21.8022 1 14.6224 1C7.44268 1 1.62238 6.8203 1.62238 14C1.62238 21.1798 7.44268 27 14.6224 27Z" stroke="white" stroke-linecap="round" stroke-linejoin="round"/>
<path d="M11.6224 20H17.6224" stroke="white" stroke-linecap="round" stroke-linejoin="round"/>
<path d="M14.6224 20V13H12.6224" stroke="white" stroke-linecap="round" stroke-linejoin="round"/>
<path d="M14.6224 8.5C14.3462 8.5 14.1224 8.27614 14.1224 8C14.1224 7.72386 14.3462 7.5 14.6224 7.5" stroke="white" stroke-linecap="round" stroke-linejoin="round"/>
<path d="M14.6224 8.5C14.8985 8.5 15.1224 8.27614 15.1224 8C15.1224 7.72386 14.8985 7.5 14.6224 7.5" stroke="white" stroke-linecap="round" stroke-linejoin="round"/>
</g>
<defs>
<clipPath id="clip0_2702_1087">
<rect width="28" height="28" fill="white" transform="translate(0.622375)"/>
</clipPath>
</defs>
</svg>
